<svg xmlns="http://www.w3.org/2000/svg" viewBox="0 0 64 64" width="64" height="64">
  <defs>
    <linearGradient id="p" x1="0" y1="0" x2="0" y2="1">
      <stop offset="0" stop-color="#ff7b7b"/>
      <stop offset="1" stop-color="#d64550"/>
    </linearGradient>
  </defs>
  <path d="M14 6h24l12 12v40a3 3 0 0 1-3 3H17a3 3 0 0 1-3-3V9a3 3 0 0 1 3-3z"
        fill="url(#p)" stroke="rgba(255,255,255,.35)" stroke-width="1.2"/>
  <path d="M38 6l12 12H41a3 3 0 0 1-3-3V6z" fill="rgba(255,255,255,.28)"/>
  <rect x="21" y="30" width="22" height="3.4" rx="1.7" fill="rgba(255,255,255,.75)"/>
  <rect x="21" y="38" width="22" height="3.4" rx="1.7" fill="rgba(255,255,255,.55)"/>
  <rect x="21" y="46" width="14" height="3.4" rx="1.7" fill="rgba(255,255,255,.4)"/>
  <path d="M40 44l12 12-4 2-3-6-5 1z" fill="#ffd36e" stroke="#8a5a12" stroke-width="1.1" stroke-linejoin="round"/>
  <path d="M52 56l3.4-3.4" stroke="#8a5a12" stroke-width="2.4" stroke-linecap="round"/>
</svg>
